<svg xmlns="http://www.w3.org/2000/svg" viewBox="0 0 34 34"><defs><style>.cls-1{fill:none;}.cls-2{fill:#795548;}.cls-3{fill:#4e342e;}.cls-4{fill:#fbc730;}.cls-5{fill:#f3b300;}</style></defs><title>ic_business_favorite_34px</title><g id="Layer_2" data-name="Layer 2"><g id="Layer_1-2" data-name="Layer 1"><path class="cls-1" d="M0,0H34V34H0Z"/><rect class="cls-1" width="34" height="34"/><rect class="cls-1" x="14.16" y="7.08" width="5.67" height="2.83"/><rect class="cls-1" x="14.16" y="7.08" width="5.67" height="2.83"/><path class="cls-2" d="M14.17,22.67V21.25H4.26v5.67a2.82,2.82,0,0,0,2.83,2.83H26.92a2.82,2.82,0,0,0,2.83-2.83V21.25H19.83v1.42Z"/><path class="cls-2" d="M28.33,9.92H22.66V7.08L19.82,4.25H14.16L11.33,7.08V9.92H5.67a2.84,2.84,0,0,0-2.84,2.83V17a2.83,2.83,0,0,0,2.83,2.84h8.5V17h5.67v2.83h8.5A2.83,2.83,0,0,0,31.17,17V12.75A2.83,2.83,0,0,0,28.33,9.92Zm-8.5,0H14.16V7.08h5.67Z"/><rect class="cls-3" x="4.24" y="19.47" width="25.46" height="2.65"/><rect class="cls-4" x="13.98" y="16.87" width="6.08" height="6"/><rect class="cls-5" x="17.09" y="16.87" width="2.97" height="6"/></g></g></svg>